<svg width="1920" height="1080" viewBox="0 0 1920 1080" xmlns="http://www.w3.org/2000/svg"><rect width="1920" height="1080" fill="#f8f7f7"/><path d="M1920,1080C1641,1136.1666666666667,280.3333333333333,1145,0,1080C-280.3333333333333,1015,159.33333333333331,807.8333333333334,238,690C316.6666666666667,572.1666666666666,393.5,403,472,373C550.5,343,629.1666666666666,526.3333333333334,709,510C788.8333333333334,493.6666666666667,870.5,312,951,275C1031.5,238,1112,159.16666666666666,1192,288C1272,416.83333333333337,1350.6666666666667,972.1666666666666,1431,1048C1511.3333333333333,1123.8333333333333,1592.5,737.6666666666666,1674,743C1755.5,748.3333333333334,2199,1023.8333333333334,1920,1080C1641,1136.1666666666667,280.3333333333333,1145,0,1080" fill="#1d1245"/></svg>